<svg width="156" height="33" viewBox="0 0 156 33" fill="none" xmlns="http://www.w3.org/2000/svg">
<g clip-path="url(#clip0)">
<path d="M149.944 6.56348L144.661 12.5873V6.56348H140.838V21.7702H144.661V15.3679L150.316 21.7702H155.255L148.299 13.8025L154.751 6.56348H149.944Z" fill="#CD3429"/>
<path d="M134.097 12.2349H128.814V6.56348H124.988V21.7702H128.814V15.7744H134.097V21.7702H137.92V6.56348H134.097V12.2349Z" fill="#CD3429"/>
<path d="M23.1173 14.8014C23.026 17.6382 22.6668 18.2047 21.1006 18.2047V21.7702H21.685C25.5931 21.7702 26.5324 19.7161 26.677 15.1517L26.8363 10.1008H30.5001V21.7702H34.3232V6.56348H23.3851L23.1173 14.8014Z" fill="#CD3429"/>
<path d="M43.8249 11.1819H41.0643V6.56348H37.2412V21.7723H43.878C48.0454 21.7723 49.533 19.0177 49.533 16.4231C49.533 13.0738 47.461 11.1819 43.8249 11.1819ZM43.5316 18.4209H41.0622V14.5593H43.5316C44.8598 14.5593 45.6546 15.1539 45.6546 16.4231C45.6568 17.8004 44.8875 18.4209 43.5316 18.4209Z" fill="#CD3429"/>
<path d="M61.9846 6.21092V0.56543H58.1615V6.21092C53.7816 6.5893 50.834 9.75043 50.834 14.1527C50.834 18.583 53.7816 21.7441 58.1615 22.1225V27.8501H61.9846V22.1225C66.3645 21.7722 69.3121 18.583 69.3121 14.1527C69.3121 9.72232 66.3666 6.56335 61.9846 6.21092ZM58.1615 18.4489C56.0385 18.1505 54.7102 16.5311 54.7102 14.1548C54.7102 11.7786 56.0385 10.1569 58.1615 9.8607V18.4489ZM61.9846 18.4489V9.85854C64.1076 10.1548 65.4358 11.7764 65.4358 14.1527C65.4358 16.5289 64.1097 18.1505 61.9846 18.4489Z" fill="#CD3429"/>
<path d="M83.6501 17.0977V11.9927C83.6501 8.2651 81.3145 5.91479 77.3851 5.91479C73.324 5.91479 71.1733 8.40132 70.9863 10.9938H74.8626C74.9943 10.4273 75.5788 9.45431 77.3851 9.45431C78.8727 9.45431 79.8269 10.157 79.8269 11.9927H76.0293C72.6312 11.9927 70.6123 13.8025 70.6123 16.8274C70.6123 19.9885 72.8203 22.1485 76.0017 22.1485C78.3351 22.1485 79.6314 21.0264 80.1967 20.1766C80.7004 21.2037 81.8161 21.7702 83.276 21.7702H84.6042V18.2588C83.9157 18.2588 83.6501 17.9344 83.6501 17.0977ZM79.8269 16.0987C79.8269 17.8544 78.605 18.8534 77.0132 18.8534C75.6319 18.8534 74.5438 18.3409 74.5438 16.8274C74.5438 15.342 75.7381 15.0998 76.7731 15.0998H79.8269V16.0987Z" fill="#CD3429"/>
<path d="M100.033 8.72338H95.7592V4.42927H105.662V0.56543H91.749V21.7701H100.033C104.625 21.7701 107.254 19.4479 107.254 15.1797C107.254 11.1559 104.625 8.72338 100.033 8.72338ZM99.8458 17.9343H95.757V12.4251H99.8458C101.969 12.4251 103.165 13.424 103.165 15.1797C103.165 16.9894 101.971 17.9343 99.8458 17.9343Z" fill="#CD3429"/>
<path d="M121.883 17.0977V11.9927C121.883 8.2651 119.548 5.91479 115.619 5.91479C111.557 5.91479 109.407 8.40132 109.22 10.9938H113.096C113.228 10.4273 113.812 9.45431 115.619 9.45431C117.106 9.45431 118.06 10.157 118.06 11.9927H114.263C110.865 11.9927 108.846 13.8025 108.846 16.8274C108.846 19.9885 111.054 22.1485 114.235 22.1485C116.568 22.1485 117.865 21.0264 118.43 20.1766C118.934 21.2037 120.049 21.7702 121.509 21.7702H122.838V18.2588C122.149 18.2588 121.883 17.9344 121.883 17.0977ZM118.06 16.0987C118.06 17.8544 116.838 18.8534 115.247 18.8534C113.865 18.8534 112.777 18.3409 112.777 16.8274C112.777 15.342 113.972 15.0998 115.007 15.0998H118.06V16.0987Z" fill="#CD3429"/>
<path d="M20.8609 28.2546H0.416992V32.5769H20.8609V28.2546Z" fill="#CD3429"/>
<path d="M14.3566 3.47575C13.7721 1.70708 13.1006 0.310303 10.7991 0.310303C8.49754 0.310303 7.78136 1.70059 7.16932 3.47575L0.842773 21.7701H5.03781L6.49778 17.4219H14.5691L15.9228 21.7701H20.3835L14.3566 3.47575ZM7.71974 13.7483L10.5866 5.07794H10.6928L13.4002 13.7483H7.71974Z" fill="#CD3429"/>
</g>
<defs>
<clipPath id="clip0">
<rect width="154.838" height="32.2664" fill="white" transform="translate(0.416992 0.310303)"/>
</clipPath>
</defs>
</svg>
