<svg width="60" height="60" viewBox="0 0 60 60" fill="none" xmlns="http://www.w3.org/2000/svg">
<path d="M57.49 27H54V20.732C54 19.226 52.774 18 51.268 18H48V15.586L47.505 15.091C47.504 15.091 47.504 15.09 47.504 15.089L40.208 7.793L32.414 0H8V11H2.732C1.226 11 0 12.226 0 13.732V57.419H0.006C0.001 57.982 0.176 58.533 0.528 58.994C1.018 59.634 1.76 60 2.565 60H47.324C48.48 60 49.498 59.221 49.774 58.187L60 30.149V29.972C60 28.25 58.944 27 57.49 27ZM51.268 20C51.671 20 52 20.328 52 20.732V27H48V20H51.268ZM33 3.415L44.586 15H33V3.415ZM10 2H31V17H46V18V27H12.731C12.588 27 12.447 27.012 12.309 27.035C11.335 27.197 10.523 27.907 10.281 28.813L10 29.585V11V2ZM2 13.732C2 13.328 2.329 13 2.732 13H8V35.035L2 51.399V13.732ZM47.869 57.583C47.803 57.828 47.579 58 47.324 58H2.565C2.322 58 2.18 57.861 2.117 57.778C2.054 57.696 1.957 57.522 1.994 57.37L8 40.898V40.903L12.16 29.499L12.186 29.417C12.252 29.172 12.477 29 12.731 29H46H48H54H57.49C57.87 29 57.967 29.546 57.992 29.819L47.869 57.583Z" fill="#F68633"/>
<path d="M16 17H26C26.552 17 27 16.553 27 16C27 15.447 26.552 15 26 15H16C15.448 15 15 15.447 15 16C15 16.553 15.448 17 16 17Z" fill="#F68633"/>
<path d="M16 10H26C26.552 10 27 9.553 27 9C27 8.447 26.552 8 26 8H16C15.448 8 15 8.447 15 9C15 9.553 15.448 10 16 10Z" fill="#F68633"/>
<path d="M16 24H40C40.552 24 41 23.553 41 23C41 22.447 40.552 22 40 22H16C15.448 22 15 22.447 15 23C15 23.553 15.448 24 16 24Z" fill="#F68633"/>
</svg>
