<svg width="60" height="58" viewBox="0 0 60 58" fill="none" xmlns="http://www.w3.org/2000/svg">
<g clip-path="url(#clip0)">
<path d="M49 0H11C8.24 0.00311495 6.00325 2.14692 6 4.79223V30.6702C6.00325 33.3156 8.24 35.4594 11 35.4625H24.674L23.246 40.2547H20V42.1716H40V40.2547H36.754L35.326 35.4625H49C51.76 35.4594 53.9967 33.3156 54 30.6702V4.79223C53.9967 2.14692 51.76 0.00311495 49 0ZM25.326 40.2547L26.754 35.4625H33.246L34.674 40.2547H25.326ZM52 30.6702C52 32.2583 50.6569 33.5456 49 33.5456H11C9.34312 33.5456 8 32.2583 8 30.6702V28.7534H52V30.6702ZM52 26.8365H8V4.79223C8 3.2042 9.34312 1.91689 11 1.91689H49C50.6569 1.91689 52 3.2042 52 4.79223V26.8365Z" fill="#F68633"/>
<path d="M38 44.0876H10C9.44775 44.0876 9 44.5168 9 45.0461V56.5474C9 57.0767 9.44775 57.5059 10 57.5059H38C38.5523 57.5059 39 57.0767 39 56.5474V45.0461C39 44.5168 38.5523 44.0876 38 44.0876ZM37 55.589H11V46.0045H37V55.589Z" fill="#F68633"/>
<path d="M15 51.7563H13V53.6732H15V51.7563Z" fill="#F68633"/>
<path d="M15 47.9219H13V49.8388H15V47.9219Z" fill="#F68633"/>
<path d="M19 47.9219H17V49.8388H19V47.9219Z" fill="#F68633"/>
<path d="M23 47.9219H21V49.8388H23V47.9219Z" fill="#F68633"/>
<path d="M31 47.9219H29V49.8388H31V47.9219Z" fill="#F68633"/>
<path d="M27 47.9219H25V49.8388H27V47.9219Z" fill="#F68633"/>
<path d="M35 51.7563H33V53.6732H35V51.7563Z" fill="#F68633"/>
<path d="M35 47.9219H33V49.8388H35V47.9219Z" fill="#F68633"/>
<path d="M31 51.7563H17V53.6732H31V51.7563Z" fill="#F68633"/>
<path d="M46 44.0876C43.2386 44.0876 41 46.2332 41 48.8799V52.7137C41 55.3603 43.2386 57.5059 46 57.5059C48.7614 57.5059 51 55.3603 51 52.7137V48.8799C51 46.2332 48.7614 44.0876 46 44.0876ZM49 52.7137C49 54.3017 47.6569 55.589 46 55.589C44.3431 55.589 43 54.3017 43 52.7137V48.8799C43 47.2919 44.3431 46.0045 46 46.0045C47.6569 46.0045 49 47.2919 49 48.8799V52.7137Z" fill="#F68633"/>
<path d="M47 47.9219H45V49.8388H47V47.9219Z" fill="#F68633"/>
<path d="M31.034 8.38292L27.0303 21.7935L28.9522 22.3206L32.956 8.91003L31.034 8.38292Z" fill="#F68633"/>
<path d="M24.6396 11.2791L23.3596 9.80688L17.3596 14.5991C16.9354 14.9382 16.8783 15.5425 17.2321 15.9491C17.2707 15.9934 17.3133 16.0344 17.3596 16.0713L23.3596 20.8635L24.6396 19.3913L19.5616 15.3352L24.6396 11.2791Z" fill="#F68633"/>
<path d="M42.7669 14.7213C42.7282 14.677 42.6856 14.636 42.6394 14.5991L36.6394 9.80688L35.3594 11.2791L40.4374 15.3352L35.3594 19.3913L36.6394 20.8635L42.6394 16.0713C43.0635 15.7322 43.1206 15.1279 42.7669 14.7213Z" fill="#F68633"/>
</g>
<defs>
<clipPath id="clip0">
<rect width="60" height="57.5067" fill="white"/>
</clipPath>
</defs>
</svg>
