<svg width="60" height="60" viewBox="0 0 60 60" fill="none" xmlns="http://www.w3.org/2000/svg">
<path d="M56.9111 23.3333H51.2978C50.3956 23.3333 49.6522 22.8367 49.3067 22.0033C48.9611 21.17 49.1367 20.2922 49.7733 19.6544L53.7422 15.6867C54.3256 15.1033 54.6467 14.3267 54.6467 13.5022C54.6467 12.6767 54.3256 11.9011 53.7422 11.3167L48.6833 6.25778C47.5167 5.09111 45.4822 5.08889 44.3133 6.25778L40.3456 10.2256C39.7078 10.8622 38.8278 11.04 37.9967 10.6933C37.1633 10.3478 36.6667 9.60444 36.6667 8.70222V3.08889C36.6667 1.38556 35.2811 0 33.5778 0H26.4222C24.7189 0 23.3333 1.38556 23.3333 3.08889V8.70222C23.3333 9.60444 22.8367 10.3478 22.0033 10.6933C21.1722 11.0411 20.2922 10.8622 19.6544 10.2256L15.6867 6.25778C14.5178 5.08889 12.4833 5.09111 11.3167 6.25778L6.25778 11.3167C5.67444 11.9 5.35333 12.6767 5.35333 13.5022C5.35333 14.3267 5.67444 15.1022 6.25778 15.6867L10.2267 19.6544C10.8633 20.2922 11.0378 21.17 10.6933 22.0033C10.3489 22.8367 9.60444 23.3333 8.70222 23.3333H3.08889C1.38556 23.3333 0 24.7189 0 26.4222V33.5767C0 35.2811 1.38556 36.6667 3.08889 36.6667H8.70222C9.60444 36.6667 10.3478 37.1633 10.6933 37.9967C11.0389 38.83 10.8633 39.7078 10.2267 40.3456L6.25778 44.3133C5.67444 44.8967 5.35333 45.6733 5.35333 46.4978C5.35333 47.3233 5.67444 48.0989 6.25778 48.6833L11.3167 53.7422C12.4844 54.91 14.5178 54.9122 15.6867 53.7422L19.6544 49.7733C20.2922 49.1367 21.1689 48.9611 22.0033 49.3067C22.8367 49.6522 23.3333 50.3956 23.3333 51.2978V56.9111C23.3333 58.6144 24.7189 60 26.4222 60H33.5767C35.28 60 36.6656 58.6144 36.6656 56.9111V51.2978C36.6656 50.3956 37.1622 49.6522 37.9956 49.3067C38.83 48.96 39.7067 49.1367 40.3444 49.7733L44.3122 53.7422C45.4811 54.9111 47.5156 54.9089 48.6822 53.7422L53.7411 48.6833C54.3244 48.1 54.6456 47.3233 54.6456 46.4978C54.6456 45.6733 54.3244 44.8978 53.7411 44.3133L49.7722 40.3456C49.1356 39.7078 48.9611 38.83 49.3056 37.9967C49.65 37.1633 50.3956 36.6667 51.2978 36.6667H56.9111C58.6144 36.6667 60 35.2811 60 33.5778V26.4222C60 24.7189 58.6144 23.3333 56.9111 23.3333ZM57.7778 33.5778C57.7778 34.0556 57.3889 34.4444 56.9111 34.4444H51.2978C49.4933 34.4444 47.9433 35.48 47.2533 37.1467C46.5622 38.8133 46.9256 40.6422 48.2022 41.9178L52.1711 45.8856C52.51 46.2244 52.51 46.7744 52.1711 47.1122L47.1122 52.1711C46.7744 52.5089 46.2244 52.5111 45.8856 52.1711L41.9178 48.2022C40.6411 46.9256 38.8133 46.5644 37.1467 47.2533C35.48 47.9433 34.4444 49.4933 34.4444 51.2978V56.9111C34.4444 57.3889 34.0556 57.7778 33.5778 57.7778H26.4222C25.9444 57.7778 25.5556 57.3889 25.5556 56.9111V51.2978C25.5556 49.4933 24.52 47.9433 22.8533 47.2533C22.2944 47.0211 21.7189 46.9078 21.15 46.9078C20.0233 46.9078 18.9311 47.3522 18.0822 48.2011L14.1144 52.17C13.7744 52.51 13.2244 52.5078 12.8878 52.17L7.82889 47.1111C7.49 46.7722 7.49 46.2222 7.82889 45.8844L11.7978 41.9167C13.0733 40.6411 13.4378 38.8122 12.7467 37.1456C12.0567 35.48 10.5067 34.4444 8.70222 34.4444H3.08889C2.61111 34.4444 2.22222 34.0556 2.22222 33.5778V26.4222C2.22222 25.9444 2.61111 25.5556 3.08889 25.5556H8.70222C10.5067 25.5556 12.0567 24.52 12.7467 22.8533C13.4378 21.1867 13.0744 19.3578 11.7978 18.0822L7.82889 14.1144C7.49 13.7756 7.49 13.2256 7.82889 12.8878L12.8878 7.82889C13.2256 7.49 13.7756 7.49 14.1144 7.82889L18.0822 11.7967C19.3567 13.0711 21.1844 13.4367 22.8533 12.7456C24.52 12.0567 25.5556 10.5067 25.5556 8.70222V3.08889C25.5556 2.61111 25.9444 2.22222 26.4222 2.22222H33.5767C34.0556 2.22222 34.4444 2.61111 34.4444 3.08889V8.70222C34.4444 10.5067 35.48 12.0567 37.1467 12.7467C38.8156 13.4378 40.6422 13.0733 41.9178 11.7978L45.8856 7.83C46.2256 7.49111 46.7756 7.49111 47.1122 7.83L52.1711 12.8889C52.51 13.2278 52.51 13.7778 52.1711 14.1156L48.2022 18.0833C46.9267 19.3589 46.5622 21.1878 47.2533 22.8544C47.9433 24.5211 49.4933 25.5567 51.2978 25.5567H56.9111C57.3889 25.5556 57.7778 25.9444 57.7778 26.4222V33.5778Z" fill="#F68633"/>
<path d="M30 20C24.4856 20 20 24.4856 20 30C20 35.5144 24.4856 40 30 40C35.5144 40 40 35.5144 40 30C40 24.4856 35.5144 20 30 20ZM30 37.7778C25.7122 37.7778 22.2222 34.2878 22.2222 30C22.2222 25.7122 25.7122 22.2222 30 22.2222C34.2878 22.2222 37.7778 25.7122 37.7778 30C37.7778 34.2878 34.2878 37.7778 30 37.7778Z" fill="#F68633"/>
</svg>
