<svg width="60" height="60" viewBox="0 0 60 60" fill="none" xmlns="http://www.w3.org/2000/svg">
<g clip-path="url(#clip0)">
<path d="M59.9993 58.0002H0V60.0002H59.9993V58.0002Z" fill="#F68633"/>
<path d="M57.8944 8.55347L53.8944 0.553568C53.6478 0.059324 53.0474 -0.141423 52.5532 0.105198C52.5529 0.105323 52.5527 0.105448 52.5524 0.105573L44.5525 4.10552C44.0583 4.3524 43.8577 4.95326 44.1045 5.44751C44.3514 5.94175 44.9523 6.14237 45.4465 5.8955L51.2404 3.00054L49.6595 7.51448C42.7104 27.3052 24.812 41.1896 3.91504 43L4.08504 45C25.7694 43.1215 44.3413 28.7121 51.5484 8.17447L53.1624 3.56253L56.1044 9.44746C56.3513 9.9417 56.9521 10.1423 57.4464 9.89545C57.9407 9.64858 58.1412 9.04784 57.8944 8.55347Z" fill="#F68633"/>
<path d="M11.9999 48.0002H4.99999C4.44774 48.0002 4 48.448 4 49.0002V55.0002C4 55.5524 4.44774 56.0001 4.99999 56.0001H11.9999C12.5521 56.0001 12.9999 55.5524 12.9999 55.0002V49.0002C12.9999 48.448 12.5521 48.0002 11.9999 48.0002ZM10.9999 54.0002H5.99997V50.0002H10.9999V54.0002Z" fill="#F68633"/>
<path d="M22.9999 45.0002H16C15.4477 45.0002 15 45.448 15 46.0002V55.0001C15 55.5524 15.4477 56.0001 16 56.0001H22.9999C23.5521 56.0001 23.9999 55.5524 23.9999 55.0001V46.0002C23.9999 45.448 23.5521 45.0002 22.9999 45.0002ZM21.9999 54.0001H17V47.0002H21.9999V54.0001Z" fill="#F68633"/>
<path d="M33.9999 40.0002H27C26.4477 40.0002 26 40.448 26 41.0002V55.0001C26 55.5523 26.4477 56 27 56H33.9999C34.5521 56 34.9999 55.5523 34.9999 55.0001V41.0002C34.9999 40.448 34.5521 40.0002 33.9999 40.0002ZM32.9999 54.0001H28V42.0002H32.9999V54.0001Z" fill="#F68633"/>
<path d="M44.9999 33.0005H38C37.4477 33.0005 37 33.4482 37 34.0005V55.0002C37 55.5525 37.4477 56.0002 38 56.0002H44.9999C45.5521 56.0002 45.9999 55.5525 45.9999 55.0002V34.0005C45.9999 33.4482 45.5521 33.0005 44.9999 33.0005ZM43.9999 54.0002H39V35.0005H43.9999V54.0002Z" fill="#F68633"/>
<path d="M55.9999 19.0005H49C48.4477 19.0005 48 19.4482 48 20.0005V55C48 55.5523 48.4477 56 49 56H55.9999C56.5521 56 56.9999 55.5523 56.9999 55V20.0005C56.9999 19.4482 56.5521 19.0005 55.9999 19.0005ZM54.9999 54H50V21.0005H54.9999V54Z" fill="#F68633"/>
</g>
<defs>
<clipPath id="clip0">
<rect width="60" height="60" fill="white"/>
</clipPath>
</defs>
</svg>
