<svg width="160" height="28" viewBox="0 0 160 28" fill="none" xmlns="http://www.w3.org/2000/svg">
<path d="M73.6684 7.39502C74.5125 7.39502 75.2543 7.5245 75.8427 7.78346C76.431 8.04243 76.917 8.35318 77.3007 8.76753C77.6844 9.18187 77.9402 9.648 78.1192 10.1659C78.2983 10.6839 78.375 11.2277 78.375 11.7974C78.375 12.3412 78.2983 12.885 78.1192 13.4289C77.9402 13.9727 77.6844 14.4388 77.3007 14.8532C76.917 15.2675 76.431 15.6042 75.8427 15.8372C75.2543 16.0962 74.5125 16.2257 73.6684 16.2257H70.5221V21.1719H67.5293V7.39502H73.6684ZM72.8498 13.8691C73.1824 13.8691 73.5149 13.8432 73.8475 13.7914C74.1544 13.7396 74.4358 13.636 74.6916 13.4807C74.9218 13.3253 75.1264 13.1181 75.2799 12.8591C75.4334 12.6002 75.5101 12.2376 75.5101 11.7974C75.5101 11.3572 75.4334 11.0205 75.2799 10.7356C75.1264 10.4767 74.9474 10.2436 74.6916 10.1141C74.4614 9.95876 74.18 9.88107 73.8475 9.80338C73.5405 9.75159 73.208 9.72569 72.8498 9.72569H70.5221V13.8432H72.8498V13.8691Z" fill="white"/>
<path d="M87.1489 7.39551C87.993 7.39551 88.7348 7.52499 89.3232 7.78395C89.9115 8.04292 90.3975 8.35367 90.7812 8.76801C91.1649 9.18236 91.4207 9.64849 91.5997 10.1664C91.7788 10.6843 91.8555 11.2282 91.8555 11.7979C91.8555 12.3417 91.7788 12.8855 91.5997 13.4294C91.4207 13.9732 91.1649 14.4393 90.7812 14.8537C90.3975 15.268 89.9371 15.6046 89.3232 15.8377C88.7348 16.0967 87.993 16.2262 87.1489 16.2262H84.0026V21.1465H81.0098V7.39551H87.1489ZM86.3303 13.8696C86.6629 13.8696 86.9954 13.8437 87.3279 13.7919C87.6349 13.7401 87.9163 13.6365 88.1721 13.4811C88.4023 13.3258 88.6069 13.1186 88.7604 12.8596C88.9139 12.6007 88.9906 12.2381 88.9906 11.7979C88.9906 11.3576 88.9139 10.9951 88.7604 10.7361C88.6069 10.4772 88.4279 10.2441 88.1721 10.1146C87.9419 9.95925 87.6605 9.88156 87.3279 9.80387C87.021 9.75207 86.6884 9.72618 86.3303 9.72618H84.0026V13.8437H86.3303V13.8696Z" fill="white"/>
<path d="M93.0078 7.39502H96.3587L99.5306 12.8333L102.702 7.39502H106.028L100.989 15.8631V21.146H97.9958V15.7854L93.0078 7.39502Z" fill="white"/>
<path d="M110.914 7.39551V18.6086H117.539V21.1465H107.921V7.39551H110.914Z" fill="white"/>
<path d="M130.148 7.39502V9.93286H122.961V12.885H129.56V15.2416H122.961V18.6081H130.302V21.146H119.968V7.39502H130.148Z" fill="white"/>
<path d="M136.031 7.39502L141.709 16.6141H141.761V7.39502H144.549V21.146H141.556L135.903 11.9269H135.877V21.146H133.063V7.39502H136.031Z" fill="white"/>
<path d="M153.81 7.39551C154.679 7.39551 155.498 7.52499 156.265 7.80985C157.033 8.09471 157.672 8.50905 158.235 9.07877C158.798 9.64849 159.207 10.3477 159.54 11.2023C159.846 12.0568 160 13.0409 160 14.1803C160 15.1903 159.872 16.0967 159.616 16.9513C159.36 17.8058 158.977 18.5309 158.465 19.1524C157.954 19.774 157.314 20.266 156.547 20.6026C155.779 20.9652 154.884 21.1206 153.835 21.1206H147.978V7.39551H153.81ZM153.605 18.6086C154.04 18.6086 154.449 18.5309 154.858 18.4014C155.268 18.272 155.626 18.0389 155.933 17.7022C156.24 17.3656 156.496 16.9513 156.7 16.4074C156.879 15.8895 156.982 15.2421 156.982 14.4911C156.982 13.7919 156.905 13.1704 156.777 12.6007C156.649 12.031 156.419 11.5648 156.112 11.1764C155.805 10.7879 155.396 10.4772 154.91 10.27C154.424 10.0628 153.784 9.95924 153.042 9.95924H150.919V18.6345H153.605V18.6086Z" fill="white"/>
<path d="M25.4526 20.7069C25.4526 21.1471 25.4526 21.6132 25.4526 22.0794C25.4526 22.2607 25.4526 22.4419 25.4526 22.6491V23.2188V24.5136C25.4526 25.4459 25.1712 26.1969 24.6085 26.8443C23.8667 27.6989 22.9203 28.0873 21.7948 27.9837C20.3111 27.8543 19.1089 26.7148 18.8275 25.1869C18.8019 25.0316 18.7764 24.8762 18.7764 24.7208C18.7764 23.426 18.7764 22.0276 18.7764 20.6551C18.7764 19.2567 19.6461 17.9878 20.9506 17.5216C21.3343 17.3921 21.718 17.3145 22.1017 17.3145C22.69 17.3145 23.2784 17.4698 23.79 17.7806C24.5829 18.2726 25.1457 19.0495 25.3503 19.9818C25.427 20.1889 25.4526 20.4479 25.4526 20.7069Z" fill="white"/>
<path d="M25.3746 3.71795C25.4001 3.87332 25.4001 4.0287 25.4001 4.15818C25.4001 5.89324 24.1723 7.39522 22.4585 7.70598C20.4889 8.04263 18.6471 6.72192 18.3402 4.7279C18.0332 2.81157 19.2866 0.998831 21.1539 0.636283C21.2562 0.610386 21.3586 0.610386 21.4609 0.58449L21.6144 0.558594H22.0748L22.2283 0.58449C22.3562 0.610386 22.4585 0.610386 22.5864 0.636283C24.07 0.947039 25.1955 2.19006 25.3746 3.71795Z" fill="white"/>
<path d="M25.3748 11.1504C25.5027 11.9273 25.2469 12.6006 24.633 13.1703C23.2517 14.4133 21.8192 15.4233 20.2589 16.2002C18.7241 16.9512 17.1126 17.4691 15.4499 17.7022C13.9663 17.9094 12.4315 17.9094 10.8967 17.7022C8.46668 17.3655 6.16452 16.5627 3.83678 15.2161C2.73686 14.5687 1.79041 13.9213 0.971867 13.1962C0.511434 12.8078 0.255639 12.3416 0.1789 11.7719C0.1789 11.746 0.1789 11.7201 0.15332 11.7201V11.254V11.2022C0.1789 11.1504 0.1789 11.0727 0.204479 11.0209C0.460275 10.0887 1.07419 9.49304 2.07179 9.23408C3.09497 8.94922 3.99026 9.13049 4.78322 9.7779C6.34358 11.0468 8.05741 12.005 9.89914 12.5747C11.1014 12.9373 12.3036 13.1185 13.4803 13.0926C14.6569 13.0408 15.808 12.8078 16.9335 12.3157C18.0846 11.8496 19.1589 11.1763 20.2333 10.244C20.31 10.1663 20.3868 10.1146 20.4891 10.0369C20.6681 9.88148 20.8216 9.752 21.0007 9.62252C21.7936 9.0787 22.8424 8.94922 23.7888 9.31177C24.633 9.62252 25.2469 10.3217 25.3748 11.1504Z" fill="white"/>
<path d="M7.16239 3.7697C7.18797 3.92508 7.18797 4.08046 7.18797 4.20994C7.18797 5.945 5.96015 7.44698 4.24632 7.75774C2.27669 8.12029 0.434962 6.79957 0.128007 4.80556C-0.178948 2.88923 1.04887 1.07649 2.94176 0.688041C3.04408 0.662144 3.14639 0.662144 3.24871 0.636248L3.37661 0.610352H3.83704L3.99052 0.636248C4.11842 0.662144 4.22074 0.662144 4.34863 0.688041C5.85783 1.02469 6.98333 2.24182 7.16239 3.7697Z" fill="white"/>
<path d="M6.67627 20.7069C6.67627 21.1471 6.67627 21.6132 6.67627 22.0794V22.6491V23.2188C6.67627 23.6332 6.67627 24.0734 6.67627 24.5136C6.67627 25.4459 6.39489 26.1969 5.83214 26.8443C5.06475 27.6989 4.11831 28.0873 3.01839 27.9837C1.53477 27.8284 0.332534 26.7148 0.0511591 25.1869C0.0255796 25.0057 0 24.8762 0 24.7208C0 23.426 0 22.0276 0 20.6551C0 19.2567 0.895285 17.9878 2.17426 17.5216C2.55796 17.3921 2.94165 17.3145 3.32534 17.3145C3.91367 17.3145 4.502 17.4698 5.0136 17.7806C5.80656 18.2726 6.36931 19.0495 6.57395 19.9818C6.65069 20.1889 6.67627 20.422 6.67627 20.7069Z" fill="white"/>
<path d="M41.8737 7.39551V12.6784H47.3733V7.39551H50.3661V21.1465H47.3733V15.2162H41.8737V21.1465H38.8809V7.39551H41.8737Z" fill="white"/>
<path d="M60.5206 7.39551L65.611 21.1465H62.5158L61.4926 18.0907H56.4023L55.328 21.1465H52.3096L57.4511 7.39551H60.5206ZM60.6997 15.8377L58.9858 10.7879H58.9347L57.1697 15.8377H60.6997Z" fill="white"/>
</svg>
