<svg width="30" height="30" viewBox="0 0 30 30" fill="none" xmlns="http://www.w3.org/2000/svg">
<path fill-rule="evenodd" clip-rule="evenodd" d="M0 0H30V30H0V0ZM10.8781 24.2373C8.33931 24.2373 5.97094 23.5045 3.97437 22.2382L3.97312 22.2379C7.877 22.8208 10.6271 20.3364 10.6271 20.3364C7.14927 20.0659 6.46209 17.1716 6.46209 17.1716C7.6909 17.3796 8.46116 17.0879 8.46116 17.0879C4.54668 16.172 4.87964 12.5899 4.87964 12.5899C5.78616 13.1315 6.83691 13.1734 6.83691 13.1734C3.38033 10.1329 5.54622 7.17611 5.54622 7.17611C9.1702 11.5647 14.4972 11.8634 14.847 11.8778C14.7702 11.5479 14.7296 11.2043 14.7296 10.8514C14.7296 8.35002 16.758 6.32218 19.2613 6.32218C20.5663 6.32218 21.742 6.87317 22.5692 7.75592C22.7984 7.69161 23.0208 7.62223 23.2332 7.55166C24.5164 7.12371 25.4329 6.63454 25.4329 6.63454C25.2117 7.95953 23.5781 9.07157 23.4613 9.14964C23.4569 9.15273 23.4544 9.15399 23.4544 9.15399C23.4557 9.15399 23.4571 9.15384 23.4585 9.15369C23.4599 9.15354 23.4613 9.15339 23.4625 9.15339C24.7306 9.02654 26.0263 8.48806 26.0263 8.48806C25.6352 9.31019 24.0397 10.589 23.7817 10.7921C23.7886 10.9683 23.7923 11.145 23.7923 11.3231C23.7923 18.4549 18.0105 24.2373 10.8781 24.2373Z" fill="white" fill-opacity="0.5"/>
</svg>
