<svg width="30" height="30" viewBox="0 0 30 30" fill="none" xmlns="http://www.w3.org/2000/svg">
<path fill-rule="evenodd" clip-rule="evenodd" d="M0 0H30V30H0V0ZM10.602 14.0821C9.40191 12.5793 8.49072 10.9053 7.77174 9.12973C7.51876 8.5064 7.10925 8.25303 6.50869 8.22051C6.44609 8.21715 2.68242 8.13869 2.48007 8.21742C2.15547 8.34374 2.06035 8.71073 2.16231 9.09491C2.19299 9.20965 3.33452 11.6387 3.39212 11.7541C4.51916 14.0113 5.75364 16.2041 7.31654 18.199C8.30041 19.4549 9.43621 20.5319 10.8586 21.2935C12.5367 22.1926 14.3381 22.3999 16.1971 22.2989C16.841 22.2635 17.2068 21.8971 17.2477 21.3223C17.2555 21.2124 17.4231 19.9252 17.6171 19.4351C17.8441 18.8644 18.3211 18.7821 18.807 19.1528C19.013 19.3096 19.204 19.4891 19.383 19.6765C19.5957 19.8992 19.8044 20.1259 20.013 20.3526C20.387 20.7589 20.7608 21.1651 21.1579 21.5476C21.7142 22.0828 22.4049 22.3561 23.1929 22.3596C23.2149 22.3597 23.2951 22.3616 23.4181 22.3644C24.1444 22.3811 26.3624 22.4321 26.8755 22.3596C27.8293 22.2245 28.1447 21.4653 27.6341 20.6592C27.2305 20.0219 26.759 19.4165 26.2496 18.8585C25.8364 18.4064 25.3976 17.978 24.9586 17.5496C24.6529 17.2513 24.3472 16.9529 24.05 16.6463C23.5954 16.1772 23.5737 15.8613 23.8855 15.2979C23.9726 15.1412 24.0663 14.9868 24.1726 14.842C24.4553 14.4567 24.7402 14.073 25.0252 13.6894C25.5806 12.9416 26.136 12.1938 26.6743 11.434C27.1818 10.7174 27.6557 9.972 27.8533 9.09504C27.938 8.72081 27.7945 8.4259 27.4329 8.31056C27.2101 8.23967 26.9632 8.21742 26.7271 8.21623C25.3961 8.21202 24.065 8.2132 22.734 8.21623C22.0259 8.21801 21.8258 8.36099 21.5645 9.01927C21.0594 10.295 20.4726 11.5323 19.6869 12.6598C19.2545 13.2796 18.7938 13.8899 18.2712 14.4323C17.8597 14.8593 17.4573 14.7109 17.327 14.1199C17.2338 13.6958 17.202 13.2495 17.2074 12.8141C17.2149 12.1586 17.2366 11.5031 17.2583 10.8474C17.2734 10.3935 17.2884 9.93941 17.2987 9.48527C17.3048 9.22696 17.2825 8.9645 17.2393 8.70922C17.1558 8.21432 16.8843 7.85872 16.3773 7.74819C15.9887 7.66347 15.5917 7.63168 15.197 7.62806C14.947 7.62558 14.6967 7.62089 14.4465 7.61621C13.7271 7.60275 13.0072 7.58928 12.2893 7.62806C11.6922 7.65992 11.1416 7.74043 10.7464 8.24559C10.5565 8.48823 10.584 8.73147 10.8795 8.78492C11.8364 8.95733 12.0676 9.52852 12.103 10.179C12.1577 11.1947 12.1805 11.8611 12.1606 12.8781C12.1534 13.2672 12.0316 14.0183 11.8988 14.389C11.7732 14.7421 11.482 14.8166 11.1732 14.6046C10.9618 14.4598 10.7612 14.282 10.602 14.0821Z" fill="white" fill-opacity="0.5"/>
</svg>
